<?xml version="1.0" encoding="UTF-8" standalone="no"?>
<!-- Generator: Adobe Illustrator 16.0.4, SVG Export Plug-In . SVG Version: 6.00 Build 0)  -->

<svg
   xmlns:dc="http://purl.org/dc/elements/1.1/"
   xmlns:cc="http://creativecommons.org/ns#"
   xmlns:rdf="http://www.w3.org/1999/02/22-rdf-syntax-ns#"
   xmlns:svg="http://www.w3.org/2000/svg"
   xmlns="http://www.w3.org/2000/svg"
   xmlns:sodipodi="http://sodipodi.sourceforge.net/DTD/sodipodi-0.dtd"
   xmlns:inkscape="http://www.inkscape.org/namespaces/inkscape"
   version="1.1"
   id="Capa_1"
   x="0px"
   y="0px"
   width="636.40002"
   height="192"
   viewBox="0 0 636.40002 192"
   enable-background="new 0 0 500 500"
   xml:space="preserve"
   inkscape:version="0.48.5 r10040"
   sodipodi:docname="logo-white.svg"><metadata
     id="metadata31"><rdf:RDF><cc:Work
         rdf:about=""><dc:format>image/svg+xml</dc:format><dc:type
           rdf:resource="http://purl.org/dc/dcmitype/StillImage" /><dc:title></dc:title></cc:Work></rdf:RDF></metadata><defs
     id="defs29" /><sodipodi:namedview
     pagecolor="#ffffff"
     bordercolor="#666666"
     borderopacity="1"
     objecttolerance="10"
     gridtolerance="10"
     guidetolerance="10"
     inkscape:pageopacity="0"
     inkscape:pageshadow="2"
     inkscape:window-width="1920"
     inkscape:window-height="1013"
     id="namedview27"
     showgrid="false"
     inkscape:zoom="0.944"
     inkscape:cx="116.22314"
     inkscape:cy="178.8299"
     inkscape:window-x="1918"
     inkscape:window-y="-3"
     inkscape:window-maximized="1"
     inkscape:current-layer="Capa_1" /><g
     id="g3"
     transform="matrix(0.63634385,0,0,0.64955847,1.3333019,-133.95999)"><path
       style="fill:#512c15;fill-opacity:1"
       d="m 66.6875,4.0625 c -9.153806,34.785805 -35.520923,54.579252 -49.84375,75.03125 -16.20895055,23.17949 -21.7645898,59.31413 -4.1875,85.6875 12.101351,18.16101 30.121266,25.8125 54.03125,25.8125 23.908075,0 41.91654,-7.65149 54.03125,-25.8125 17.57836,-26.37272 12.05334,-62.50736 -4.15625,-85.6875 C 102.24795,58.641752 75.841943,38.848305 66.6875,4.0625 z m -0.8125,82.75 c 5.779911,0 9.525854,1.824905 11.40625,6.6875 6.329712,-5.203613 11.228901,-6.6875 17.53125,-6.6875 8.12484,0 14.40625,3.997076 14.40625,14.40625 0,1.48554 -0.2186,3.28525 -0.4375,4.75 l -4.1875,24.375 c -0.10691,0.67684 -0.21875,1.46354 -0.21875,2.03125 0,1.36992 0.76809,2.03125 2.3125,2.03125 l 6.21875,0 -0.78125,4.40625 c -1.24787,7.1367 -4.76895,9.40625 -10.4375,9.40625 -8.950813,0 -12.625,-4.09243 -12.625,-11.78125 0,-2.04741 0.187265,-3.9712 0.65625,-6.46875 l 3.75,-22.1875 c 0.117087,-0.69113 0.21875,-2.03167 0.21875,-2.5 0,-3.17244 -1.76,-4.875 -5.40625,-4.875 -3.343351,0 -6.344938,1.02772 -9.46875,3.1875 l -5.1875,30.59375 6.125,1.125 c -0.221448,3.73691 -0.926557,7.59225 -2.03125,11.78125 l -21.3125,0 6.78125,-39.53125 c 0.105633,-0.68918 0.21875,-1.92031 0.21875,-2.375 0,-3.05942 -1.664977,-4.78125 -5.3125,-4.78125 -3.124448,0 -6.568142,1.02772 -9.6875,3.1875 l -5.1875,30.59375 6.125,1.125 c 0,2.15718 -0.814561,7.81959 -2.03125,11.78125 l -26.84375,0 c 0,-2.14289 0.786492,-7.81894 2,-11.78125 l 5.78125,-1.125 5.625,-32.96875 -6.84375,-0.6875 c 0,-2.273455 0.897852,-7.821043 2,-11.5625 6.549251,-1.141924 15.083994,-1.59375 22.1875,-1.59375 l -1.125,6.34375 0.78125,0 c 5.445831,-5.432907 9.67062,-6.90625 15,-6.90625 z"
       transform="matrix(1.5714774,0,0,1.5395073,-2.0952573,206.23238)"
       id="path5"
       inkscape:connector-curvature="0" /></g><g
     id="g9"
     transform="translate(148.77966,-276.75917)"><path
       d="m 107.501,418.104 c -1.289,7.211 -4.935,9.508 -10.777,9.508 -9.238,0 -13.031,-4.121 -13.031,-11.893 0,-2.064 0.194,-4.016 0.685,-6.539 l 3.874,-22.428 c 0.114,-0.701 0.231,-2.057 0.231,-2.525 0,-3.205 -1.829,-4.918 -5.593,-4.918 -3.446,0 -6.528,1.023 -9.75,3.211 l -5.356,30.906 6.295,1.141 c -0.222,3.777 -0.938,7.672 -2.078,11.904 H 50.018 l 6.987,-39.947 c 0.112,-0.697 0.222,-1.953 0.222,-2.408 0,-3.094 -1.707,-4.807 -5.475,-4.807 -3.223,0 -6.754,1.023 -9.977,3.211 l -5.361,30.906 6.305,1.141 c 0,2.182 -0.829,7.898 -2.082,11.904 H 12.949 c 0,-2.166 0.797,-7.898 2.055,-11.904 l 5.958,-1.141 5.815,-33.314 -7.073,-0.688 c 0,-2.297 0.915,-7.898 2.054,-11.676 6.76,-1.156 15.573,-1.615 22.894,-1.615 l -1.135,6.418 h 0.798 c 5.619,-5.49 9.953,-6.984 15.453,-6.984 5.963,0 9.838,1.838 11.777,6.758 6.53,-5.264 11.579,-6.758 18.079,-6.758 8.384,0 14.883,4.02 14.883,14.545 0,1.494 -0.226,3.318 -0.461,4.797 l -4.33,24.629 c -0.113,0.682 -0.225,1.48 -0.225,2.051 0,1.383 0.793,2.066 2.391,2.066 h 6.418 l -0.799,4.449 z"
       id="path11"
       inkscape:connector-curvature="0"
       style="fill:#512c15;fill-opacity:1" /><path
       d="m 160.366,401.165 h -32.963 c -0.11,0.926 -0.226,2.297 -0.226,3.207 0,6.42 3.19,9.283 11.201,9.283 4.822,0 11.811,-1.729 16.365,-4.232 0.946,4.459 1.515,9.379 1.515,13.857 -5.503,3.08 -13.519,4.332 -20.159,4.332 -16.365,0 -25.062,-8.469 -25.062,-23.922 0,-2.525 0.228,-5.393 0.681,-8.24 3.652,-21.516 14.888,-29.883 29.544,-29.883 14.288,0 21.639,7.328 21.639,20.389 -0.001,3.418 -1.026,9.836 -2.535,15.209 z m -19.793,-24.266 c -5.727,0 -9.488,3.895 -11.345,13.975 h 17.653 c 0.455,-1.842 0.879,-4.822 0.879,-6.418 0,-5.031 -2.736,-7.557 -7.187,-7.557 z"
       id="path13"
       inkscape:connector-curvature="0"
       style="fill:#512c15;fill-opacity:1" /><path
       d="m 203.735,379.995 h -14.06 l -4.817,27.246 c -0.115,0.797 -0.115,1.609 -0.115,2.182 0,3.076 1.595,4.119 5.275,4.119 2.628,0 7.102,-0.801 9.84,-2.186 0.227,2.07 0.343,4.691 0.343,6.42 0,2.166 -0.116,4.918 -0.454,7.443 -4.023,1.713 -10.554,2.393 -13.63,2.393 -11.895,0 -17.283,-5.73 -17.283,-15.34 0,-1.941 0.229,-3.766 0.572,-5.83 l 4.677,-26.447 h -6.961 l 2.511,-13.291 h 6.734 l 2.189,-12.006 c 4.591,-1.383 11.008,-2.408 16.022,-2.52 l -2.618,14.525 h 14.995 c -0.568,4.48 -1.594,9.286 -3.22,13.292 z"
       id="path15"
       inkscape:connector-curvature="0"
       style="fill:#512c15;fill-opacity:1" /><path
       d="m 261.448,418.104 c -1.484,7.115 -4.794,9.508 -10.753,9.508 -5.156,0 -8.948,-1.822 -11.002,-6.988 h -0.801 c -4.902,5.848 -9.953,6.988 -15.112,6.988 -11.318,0 -18.419,-7.443 -18.419,-22.428 0,-4.816 0.684,-9.963 1.941,-14.77 4.588,-17.863 15.342,-24.848 28.854,-24.848 3.191,0 7.67,0.566 10.863,1.494 2.194,-0.797 4.818,-1.367 8.009,-1.367 1.973,0 4.71,0.217 6.306,0.789 l -7.669,43.055 c -0.117,0.682 -0.234,1.48 -0.234,1.934 0,1.5 0.803,2.184 2.43,2.184 h 6.501 l -0.914,4.449 z m -25.525,-39.265 c -5.154,0 -9.605,2.41 -12.144,11.463 -1.136,4.232 -2.049,10.293 -2.049,13.844 0,7.211 2.991,10.189 8.123,10.189 2.85,0 5.277,-0.68 8.015,-2.291 l 5.615,-31.932 c -2.054,-0.687 -5.393,-1.273 -7.56,-1.273 z"
       id="path17"
       inkscape:connector-curvature="0"
       style="fill:#512c15;fill-opacity:1" /><path
       d="m 325.935,355.956 -9.469,53.281 c -0.117,0.684 -0.258,1.467 -0.258,1.93 0,1.461 0.797,2.135 2.385,2.135 h 6.424 l -0.783,4.391 c -1.225,6.984 -4.848,9.355 -10.572,9.355 -5.309,0 -9.371,-1.814 -11.281,-6.869 h -0.803 c -5.058,5.621 -10.03,6.869 -15.636,6.869 -11.735,0 -18.489,-7.541 -18.489,-22.303 0,-4.74 0.695,-9.703 1.908,-14.426 4.523,-17.58 15.095,-24.34 28.396,-24.34 3.271,0 7.759,0.555 10.942,1.471 l 2.008,-11.619 -6.984,-0.672 c 0,-2.26 0.811,-7.773 2.035,-11.492 6.549,-1.127 16,-1.582 23.212,-1.582 l -3.035,13.871 z m -28.179,23.092 c -5.301,0 -9.691,2.371 -12.168,11.271 -1.133,4.176 -2.028,10.135 -2.028,13.627 0,7.221 3.054,10.021 8.21,10.021 3.408,0 6.446,-0.891 9.142,-2.467 l 5.418,-30.871 c -2.169,-0.9 -6.218,-1.581 -8.574,-1.581 z"
       id="path19"
       inkscape:connector-curvature="0"
       style="fill:#512c15;fill-opacity:1" /><path
       d="m 371.571,382.769 c -1.926,-0.576 -4.283,-1.012 -6.748,-1.012 -3.289,0 -6.773,0.773 -10.162,3.037 l -4.948,28.283 8.126,1.133 c 0,2.133 -0.799,7.764 -2.043,11.715 h -29.193 c 0,-2.139 0.799,-7.775 2.042,-11.715 l 5.857,-1.133 5.744,-32.797 -6.988,-0.672 c 0,-2.258 0.914,-7.775 2.043,-11.496 6.646,-1.113 15.311,-1.578 22.538,-1.578 l -1.369,7.551 h 0.787 c 5.529,-7.086 9.461,-8.105 12.957,-8.105 1.711,0 4.064,0.328 5.404,0.906 -0.572,4.5 -2.371,10.914 -4.047,15.883 z"
       id="path21"
       inkscape:connector-curvature="0"
       style="fill:#512c15;fill-opacity:1" /><path
       d="m 425.761,398.095 c -3.594,19.938 -14.756,28.953 -30.168,28.953 -14.344,0 -24.25,-7.541 -24.25,-23.445 0,-2.701 0.338,-5.629 0.791,-8.672 3.156,-19.941 14.631,-28.951 30.203,-28.951 14.084,0 24.221,7.314 24.221,23.545 0,2.597 -0.227,5.74 -0.797,8.57 z m -24.565,-19.27 c -6.414,0 -10.691,4.053 -12.965,17.684 -0.455,2.834 -0.666,5.406 -0.666,7.438 0,7.672 3.723,10.264 9.023,10.264 6.873,0 10.938,-4.41 13.174,-17.701 0.457,-2.699 0.67,-5.18 0.67,-7.207 10e-4,-7.884 -3.949,-10.478 -9.236,-10.478 z"
       id="path23"
       inkscape:connector-curvature="0"
       style="fill:#512c15;fill-opacity:1" /><path
       d="m 486.37,396.952 c -3.27,20.281 -13.631,30.096 -30.627,30.096 -2.941,0 -6.887,-0.57 -9.934,-1.814 l -1.916,11.051 8,1.137 c 0,2.139 -0.799,7.764 -2.021,11.705 h -29.074 c 0,-2.137 0.789,-7.777 2.035,-11.705 l 5.863,-1.137 9.795,-56.004 -6.984,-0.672 c 0,-2.258 0.885,-7.775 2.123,-11.496 6.529,-1.113 15.342,-1.578 22.559,-1.578 l -0.812,4.406 h 0.812 c 3.932,-3.607 7.754,-4.961 12.74,-4.961 10.939,0 18.123,7.207 18.123,22.307 0,2.718 -0.201,5.618 -0.682,8.665 z M 462.7,379.048 c -3.377,0 -6.512,1.016 -9.24,2.936 l -5.402,30.289 c 2.277,1.029 5.402,1.473 7.885,1.473 7.443,0 11.959,-3.713 14.186,-16.67 0.475,-3.043 0.814,-5.867 0.814,-8.111 -10e-4,-7.208 -3.266,-9.917 -8.243,-9.917 z"
       id="path25"
       inkscape:connector-curvature="0"
       style="fill:#512c15;fill-opacity:1" /></g></svg>